<svg id="visual" viewBox="0 0 2500 1500" width="2500" height="1500" xmlns="http://www.w3.org/2000/svg" xmlns:xlink="http://www.w3.org/1999/xlink" version="1.1"><g><g transform="translate(348 1405)"><path d="M238.6 -84.6C271.7 24.3 235.1 148.8 145.4 218.2C55.7 287.6 -87.1 302 -181.4 236.5C-275.8 171.1 -321.7 25.8 -283.4 -90.3C-245.1 -206.3 -122.6 -293.2 -9.9 -290C102.8 -286.8 205.5 -193.5 238.6 -84.6Z" fill="#1A74FF"></path></g><g transform="translate(2168 1004)"><path d="M243.4 -87.7C272.1 9.3 222.2 123.2 139.2 180.9C56.2 238.7 -59.8 240.3 -137.2 185C-214.7 129.6 -253.6 17.3 -224.3 -80.5C-195 -178.3 -97.5 -261.6 4.9 -263.2C107.4 -264.8 214.7 -184.7 243.4 -87.7Z" fill="#1A74FF"></path></g><g transform="translate(211 93)"><path d="M95.7 -32.1C109.7 12.1 96.9 63.9 63.2 88.9C29.5 113.8 -25.1 111.8 -60.9 85.4C-96.7 59 -113.7 8.3 -100.4 -34.8C-87.1 -78 -43.6 -113.5 -1.4 -113C40.8 -112.6 81.7 -76.2 95.7 -32.1Z" fill="#1A74FF"></path></g><g transform="translate(1666 362)"><path d="M168.4 -51.1C193.1 21.2 170.5 112.5 112.3 154.8C54.1 197.2 -39.8 190.7 -105.9 143.3C-171.9 95.9 -210.1 7.6 -187.8 -61.5C-165.5 -130.6 -82.7 -180.5 -5.4 -178.7C71.9 -176.9 143.7 -123.5 168.4 -51.1Z" fill="#1A74FF"></path></g><g transform="translate(898 785)"><path d="M204.2 -58.2C236.3 32.3 214.3 148.6 138.7 207.5C63 266.4 -66.4 267.9 -141.9 209.7C-217.3 151.5 -238.9 33.4 -206.2 -57.9C-173.6 -149.3 -86.8 -213.9 -0.4 -213.8C86.1 -213.7 172.1 -148.8 204.2 -58.2Z" fill="#1A74FF"></path></g><g transform="translate(2479 149)"><path d="M162.1 -56.5C182.4 10.1 152.3 89.2 96.9 128.2C41.5 167.3 -39.3 166.2 -93.1 127.3C-147 88.4 -173.9 11.6 -153.9 -54.4C-133.9 -120.5 -67 -175.6 1.9 -176.3C70.8 -176.9 141.7 -123 162.1 -56.5Z" fill="#1A74FF"></path></g><g transform="translate(1409 1452)"><path d="M124 -39.1C143.4 19.4 129.9 89.8 85.2 123.9C40.4 158 -35.5 155.7 -80.1 120.8C-124.6 86 -137.7 18.5 -119.2 -38.9C-100.6 -96.3 -50.3 -143.6 1 -143.9C52.3 -144.3 104.6 -97.6 124 -39.1Z" fill="#1A74FF"></path></g></g></svg>