<svg id="visual" viewBox="0 0 3024 1964" width="3024" height="1964" xmlns="http://www.w3.org/2000/svg" xmlns:xlink="http://www.w3.org/1999/xlink" version="1.1"><rect x="0" y="0" width="3024" height="1964" fill="#eaf0f4"></rect><path d="M1180 1964L1127.7 1927.7C1075.3 1891.3 970.7 1818.7 955.7 1746C940.7 1673.3 1015.3 1600.7 1044.8 1527.8C1074.3 1455 1058.7 1382 1056.5 1309.2C1054.3 1236.3 1065.7 1163.7 1013.8 1091C962 1018.3 847 945.7 811.5 873C776 800.3 820 727.7 852.8 654.8C885.7 582 907.3 509 892.7 436.2C878 363.3 827 290.7 810.5 218C794 145.3 812 72.7 821 36.3L830 0L3024 0L3024 36.3C3024 72.7 3024 145.3 3024 218C3024 290.7 3024 363.3 3024 436.2C3024 509 3024 582 3024 654.8C3024 727.7 3024 800.3 3024 873C3024 945.7 3024 1018.3 3024 1091C3024 1163.7 3024 1236.3 3024 1309.2C3024 1382 3024 1455 3024 1527.8C3024 1600.7 3024 1673.3 3024 1746C3024 1818.7 3024 1891.3 3024 1927.7L3024 1964Z" fill="#4d93ff"></path><path d="M1788 1964L1789.2 1927.7C1790.3 1891.3 1792.7 1818.7 1761.3 1746C1730 1673.3 1665 1600.7 1647.8 1527.8C1630.7 1455 1661.3 1382 1667.7 1309.2C1674 1236.3 1656 1163.7 1660.8 1091C1665.7 1018.3 1693.3 945.7 1690.3 873C1687.3 800.3 1653.7 727.7 1613.2 654.8C1572.7 582 1525.3 509 1537.7 436.2C1550 363.3 1622 290.7 1652.8 218C1683.7 145.3 1673.3 72.7 1668.2 36.3L1663 0L3024 0L3024 36.3C3024 72.7 3024 145.3 3024 218C3024 290.7 3024 363.3 3024 436.2C3024 509 3024 582 3024 654.8C3024 727.7 3024 800.3 3024 873C3024 945.7 3024 1018.3 3024 1091C3024 1163.7 3024 1236.3 3024 1309.2C3024 1382 3024 1455 3024 1527.8C3024 1600.7 3024 1673.3 3024 1746C3024 1818.7 3024 1891.3 3024 1927.7L3024 1964Z" fill="#2b5091"></path><path d="M2301 1964L2353 1927.7C2405 1891.3 2509 1818.7 2557.2 1746C2605.3 1673.3 2597.7 1600.7 2509.7 1527.8C2421.7 1455 2253.3 1382 2176.5 1309.2C2099.7 1236.3 2114.3 1163.7 2127.2 1091C2140 1018.3 2151 945.7 2208.8 873C2266.7 800.3 2371.3 727.7 2423.5 654.8C2475.7 582 2475.3 509 2437.3 436.2C2399.3 363.3 2323.7 290.7 2333.8 218C2344 145.3 2440 72.7 2488 36.3L2536 0L3024 0L3024 36.3C3024 72.7 3024 145.3 3024 218C3024 290.7 3024 363.3 3024 436.2C3024 509 3024 582 3024 654.8C3024 727.7 3024 800.3 3024 873C3024 945.7 3024 1018.3 3024 1091C3024 1163.7 3024 1236.3 3024 1309.2C3024 1382 3024 1455 3024 1527.8C3024 1600.7 3024 1673.3 3024 1746C3024 1818.7 3024 1891.3 3024 1927.7L3024 1964Z" fill="#081631"></path></svg>